<svg xmlns="http://www.w3.org/2000/svg" width="760" height="560" viewBox="0 0 760 560" font-family="Helvetica, Arial, 'DejaVu Sans', sans-serif">
<defs><marker id="pfeil" viewBox="0 0 10 10" refX="9" refY="5" markerWidth="7" markerHeight="7" orient="auto-start-reverse"><path d="M0,0 L10,5 L0,10 z" fill="#1f2328"/></marker></defs>
<rect width="760" height="560" fill="white"/>
<rect x="124.0" y="492" width="96" height="34" rx="6" fill="white" stroke="#9aa1ab" stroke-width="1.2"/>
<text x="172.0" y="514" font-size="13" text-anchor="middle" font-weight="normal" font-style="normal" fill="#1f2328">Program</text>
<rect x="228.0" y="492" width="96" height="34" rx="6" fill="white" stroke="#9aa1ab" stroke-width="1.2"/>
<text x="276.0" y="514" font-size="13" text-anchor="middle" font-weight="normal" font-style="normal" fill="#1f2328">##mier</text>
<rect x="332.0" y="492" width="96" height="34" rx="6" fill="white" stroke="#9aa1ab" stroke-width="1.2"/>
<text x="380.0" y="514" font-size="13" text-anchor="middle" font-weight="normal" font-style="normal" fill="#1f2328">##ung</text>
<rect x="436.0" y="492" width="96" height="34" rx="6" fill="white" stroke="#9aa1ab" stroke-width="1.2"/>
<text x="484.0" y="514" font-size="13" text-anchor="middle" font-weight="normal" font-style="normal" fill="#1f2328">mit</text>
<rect x="540.0" y="492" width="96" height="34" rx="6" fill="white" stroke="#9aa1ab" stroke-width="1.2"/>
<text x="588.0" y="514" font-size="13" text-anchor="middle" font-weight="normal" font-style="normal" fill="#1f2328">Python</text>
<text x="106.0" y="514" font-size="13" text-anchor="end" font-weight="normal" font-style="normal" fill="#6b7280">Subwords</text>
<line x1="380.0" y1="488" x2="380.0" y2="442" stroke="#1f2328" stroke-width="1.4" marker-end="url(#pfeil)"/>
<rect x="120.0" y="360" width="520" height="80" rx="6" fill="#eceff3" stroke="#1f2328" stroke-width="1.4"/>
<text x="380.0" y="395" font-size="16" text-anchor="middle" font-weight="bold" font-style="normal" fill="#1f2328">Vortrainierter Encoder</text>
<text x="380.0" y="418" font-size="13" text-anchor="middle" font-weight="normal" font-style="normal" fill="#6b7280">BERT · JobBERT · XLM-R — gemeinsam für beide Layer</text>
<line x1="380.0" y1="358" x2="380.0" y2="318" stroke="#1f2328" stroke-width="1.4" marker-end="url(#pfeil)"/>
<rect x="180.0" y="272" width="400" height="44" rx="6" fill="white" stroke="#9aa1ab" stroke-width="1.2"/>
<text x="380.0" y="299" font-size="13" text-anchor="middle" font-weight="normal" font-style="normal" fill="#1f2328">Erstes Subword je Wort (Folge-Subwords ignoriert)</text>
<path d="M380.0,270 L380.0,252 L210.0,252 L210.0,232" fill="none" stroke="#1f2328" stroke-width="1.4" marker-end="url(#pfeil)"/>
<rect x="100.0" y="186" width="220" height="44" rx="6" fill="#e6f1f8" stroke="#0072B2" stroke-width="1.6"/>
<text x="210.0" y="213" font-size="13.5" text-anchor="middle" font-weight="bold" font-style="normal" fill="#0072B2">Linearer Kopf SKILL</text>
<line x1="210.0" y1="184" x2="210.0" y2="156" stroke="#1f2328" stroke-width="1.4" marker-end="url(#pfeil)"/>
<rect x="100.0" y="110" width="220" height="44" rx="6" fill="#e6f1f8" stroke="#0072B2" stroke-width="1.6"/>
<text x="210.0" y="137" font-size="13.5" text-anchor="middle" font-weight="bold" font-style="normal" fill="#0072B2">CRF SKILL</text>
<line x1="210.0" y1="108" x2="210.0" y2="80" stroke="#1f2328" stroke-width="1.4" marker-end="url(#pfeil)"/>
<text x="210.0" y="70" font-size="13.5" text-anchor="middle" font-weight="normal" font-style="normal" fill="#1f2328">Tags SKILL</text>
<text x="210.0" y="50" font-size="12.5" text-anchor="middle" font-weight="normal" font-style="normal" fill="#6b7280">B · I · O</text>
<path d="M380.0,270 L380.0,252 L550.0,252 L550.0,232" fill="none" stroke="#1f2328" stroke-width="1.4" marker-end="url(#pfeil)"/>
<rect x="440.0" y="186" width="220" height="44" rx="6" fill="#fdf3e0" stroke="#E69F00" stroke-width="1.6"/>
<text x="550.0" y="213" font-size="13.5" text-anchor="middle" font-weight="bold" font-style="normal" fill="#8a5a00">Linearer Kopf KNOWLEDGE</text>
<line x1="550.0" y1="184" x2="550.0" y2="156" stroke="#1f2328" stroke-width="1.4" marker-end="url(#pfeil)"/>
<rect x="440.0" y="110" width="220" height="44" rx="6" fill="#fdf3e0" stroke="#E69F00" stroke-width="1.6"/>
<text x="550.0" y="137" font-size="13.5" text-anchor="middle" font-weight="bold" font-style="normal" fill="#8a5a00">CRF KNOWLEDGE</text>
<line x1="550.0" y1="108" x2="550.0" y2="80" stroke="#1f2328" stroke-width="1.4" marker-end="url(#pfeil)"/>
<text x="550.0" y="70" font-size="13.5" text-anchor="middle" font-weight="normal" font-style="normal" fill="#1f2328">Tags KNOWLEDGE</text>
<text x="550.0" y="50" font-size="12.5" text-anchor="middle" font-weight="normal" font-style="normal" fill="#6b7280">B · I · O</text>
<text x="380.0" y="26" font-size="13" text-anchor="middle" font-weight="normal" font-style="italic" fill="#6b7280">Loss = Loss SKILL + Loss KNOWLEDGE (Multi-Task)</text>
</svg>
